<?xml version="1.0" standalone="no"?>
<!DOCTYPE svg PUBLIC "-//W3C//DTD SVG 20010904//EN"
 "http://www.w3.org/TR/2001/REC-SVG-20010904/DTD/svg10.dtd">
<svg version="1.0" xmlns="http://www.w3.org/2000/svg"
 width="512.000000pt" height="512.000000pt" viewBox="0 0 512.000000 512.000000"
 preserveAspectRatio="xMidYMid meet">
<metadata>
Created by potrace 1.14, written by Peter Selinger 2001-2017
</metadata>
<g transform="translate(0.000000,512.000000) scale(0.100000,-0.100000)"
fill="#000000" stroke="none">
<path d="M2502 5063 c-62 -30 -66 -50 -66 -325 -1 -135 -3 -249 -6 -251 -3 -3
-34 -8 -70 -11 -219 -23 -447 -87 -645 -181 -78 -37 -321 -185 -335 -203 -3
-4 -26 -24 -51 -44 l-46 -37 -181 179 c-99 99 -186 181 -194 181 -7 1 -24 3
-38 4 -91 10 -160 -100 -116 -183 8 -15 89 -101 180 -192 154 -153 179 -183
158 -192 -15 -6 -119 -144 -169 -224 -160 -254 -254 -530 -288 -839 -4 -33 -8
-61 -9 -62 -1 -1 -114 -3 -251 -3 -279 -1 -292 -4 -324 -70 -31 -62 -14 -127
42 -160 29 -18 52 -20 285 -20 138 0 252 -3 253 -7 0 -5 2 -26 4 -48 13 -163
65 -384 128 -540 36 -89 126 -260 175 -334 85 -126 97 -143 134 -185 l33 -38
-171 -172 c-94 -94 -176 -181 -182 -193 -47 -88 36 -197 135 -178 31 6 67 36
218 186 l181 179 24 -23 c77 -70 260 -192 375 -249 91 -46 279 -117 380 -143
114 -30 124 -32 260 -47 55 -6 102 -13 105 -15 2 -2 5 -118 5 -257 1 -242 2
-253 23 -283 56 -79 174 -67 219 23 6 11 9 121 9 262 -1 228 2 267 18 262 13
-5 154 12 226 27 151 31 208 47 340 99 192 76 343 164 501 290 l66 52 173
-173 c180 -179 218 -205 274 -191 41 10 86 57 95 98 13 58 -13 98 -176 259
-82 81 -156 156 -167 167 -18 20 -17 22 47 104 123 158 213 316 282 498 38
101 80 241 89 304 4 21 8 41 10 45 2 3 7 33 11 66 4 33 8 71 10 85 2 14 3 35
4 47 1 22 1 22 265 25 247 3 265 4 286 23 67 61 57 166 -20 207 -31 16 -61 18
-282 18 -137 0 -248 3 -249 8 0 4 -2 25 -3 47 -23 287 -146 637 -308 880 -37
55 -116 163 -128 175 -38 38 -42 33 139 214 185 185 209 220 188 280 -25 76
-104 114 -168 80 -17 -8 -107 -92 -201 -185 -175 -174 -176 -175 -208 -138 -7
8 -162 122 -185 136 -130 79 -179 106 -230 128 -33 14 -69 30 -80 35 -134 61
-467 140 -589 140 -14 0 -26 3 -27 8 -1 4 -2 120 -3 257 -1 247 -2 250 -25
282 -39 52 -99 66 -159 36z m-67 -1640 l0 -417 -51 -22 -52 -23 -258 259
c-143 142 -276 276 -297 297 l-37 39 67 49 c172 123 418 219 601 233 l27 2 0
-417z m364 402 c120 -17 297 -85 424 -162 49 -29 133 -88 155 -108 2 -1 -130
-136 -293 -298 l-295 -296 -48 21 c-26 11 -49 24 -52 28 -4 7 -5 795 -1 823 0
5 16 6 34 3 17 -2 52 -8 76 -11z m-941 -748 l293 -293 -19 -50 -20 -49 -420
-3 -421 -2 5 37 c19 134 55 258 111 382 33 73 158 271 172 271 3 0 138 -132
299 -293z m1759 221 c28 -40 62 -95 77 -122 63 -114 126 -299 142 -415 3 -25
8 -54 10 -63 3 -17 -22 -18 -415 -18 l-418 0 -22 52 -22 52 293 293 c161 161
296 293 299 293 4 0 29 -33 56 -72z m-1488 -921 l22 -54 -292 -291 c-160 -161
-295 -292 -300 -292 -24 0 -147 203 -197 325 -45 111 -99 335 -85 358 2 4 190
7 417 7 l414 0 21 -53z m1715 21 c-28 -214 -103 -411 -222 -582 -27 -39 -53
-71 -58 -73 -8 -3 -459 439 -572 559 l-22 25 21 51 22 52 417 0 418 0 -4 -32z
m-1424 -288 c5 0 11 -3 11 -7 1 -5 2 -194 3 -421 l1 -414 -56 6 c-54 6 -118
21 -226 52 -74 21 -266 120 -346 178 l-69 49 297 297 297 297 39 -18 c21 -11
43 -19 49 -19z m668 -263 l293 -292 -28 -23 c-54 -45 -199 -129 -283 -165
-151 -64 -379 -115 -381 -85 -1 7 -2 195 -3 416 l-1 404 35 14 c19 7 42 18 50
23 8 5 17 7 20 5 3 -3 137 -136 298 -297z"/>
</g>
</svg>
